<?xml version="1.0" standalone="no"?>
<!DOCTYPE svg PUBLIC "-//W3C//DTD SVG 20010904//EN"
 "http://www.w3.org/TR/2001/REC-SVG-20010904/DTD/svg10.dtd">
<svg version="1.0" xmlns="http://www.w3.org/2000/svg"
 width="571.000000pt" height="571.000000pt" viewBox="0 0 571.000000 571.000000"
 preserveAspectRatio="xMidYMid meet">
<metadata>
Created by potrace 1.11, written by Peter Selinger 2001-2013
</metadata>
<g transform="translate(0.000000,571.000000) scale(0.100000,-0.100000)"
fill="#000000" stroke="none">
<path d="M3108 5270 c-145 -41 -168 -244 -35 -311 129 -67 270 41 243 185 -16
87 -121 150 -208 126z"/>
<path d="M1740 4859 c-281 -31 -455 -117 -556 -276 -34 -53 -77 -167 -89 -238
-4 -22 -8 -290 -10 -596 -3 -595 -6 -634 -54 -723 -49 -93 -160 -179 -258
-201 -18 -3 -35 -11 -39 -16 -7 -12 -7 -286 0 -298 3 -5 21 -12 40 -15 19 -4
66 -22 105 -42 106 -53 157 -121 187 -251 13 -57 16 -160 19 -623 2 -383 6
-574 14 -615 78 -383 295 -519 849 -530 l192 -4 0 164 0 165 -82 1 c-46 1 -96
3 -113 5 -36 3 -116 16 -130 20 -5 2 -23 6 -39 9 -69 14 -138 63 -172 121 -55
94 -56 106 -59 668 -2 285 -6 546 -10 580 -23 217 -107 342 -300 447 -33 17
-61 33 -63 34 -2 1 21 15 50 30 88 46 131 76 184 129 58 59 78 95 105 185 27
94 31 178 33 737 2 524 4 548 44 634 57 121 192 172 487 184 l60 2 3 163 2
162 -167 -3 c-93 -1 -197 -5 -233 -9z"/>
<path d="M3569 4836 c-1 -46 -1 -182 0 -243 l1 -48 73 -2 c76 -2 165 -10 207
-18 14 -3 39 -8 55 -11 54 -9 138 -54 170 -90 38 -43 72 -136 81 -222 3 -34 7
-297 9 -585 2 -502 3 -525 24 -596 29 -97 54 -144 108 -202 45 -48 149 -122
207 -147 l29 -13 -82 -47 c-168 -97 -229 -173 -268 -332 -14 -55 -17 -146 -18
-587 -2 -287 -6 -554 -9 -593 -18 -192 -102 -282 -291 -316 -22 -3 -49 -8 -60
-11 -11 -2 -67 -6 -125 -9 -58 -4 -106 -8 -108 -9 -3 -3 -5 -236 -3 -302 l1
-22 195 4 c107 2 203 6 212 9 10 2 38 7 63 10 262 33 450 162 524 359 49 128
53 187 53 783 1 445 3 530 17 584 40 154 133 249 294 300 l42 13 0 152 0 153
-32 6 c-56 10 -151 62 -195 106 -42 41 -98 141 -108 190 -14 71 -17 159 -20
646 -1 291 -5 538 -7 549 -3 11 -9 38 -13 60 -5 22 -9 42 -10 45 -1 3 -5 21
-9 40 -14 61 -76 170 -124 222 -25 27 -72 65 -103 83 -54 32 -199 90 -199 80
0 -2 -12 0 -27 6 -50 19 -225 36 -390 38 l-163 2 -1 -35z"/>
<path d="M2706 4605 c-37 -20 -53 -41 -66 -88 -10 -33 -8 -45 10 -83 25 -51
62 -74 117 -74 77 0 133 59 128 136 -6 96 -104 153 -189 109z"/>
<path d="M3002 4221 c-49 -20 -66 -34 -92 -76 -55 -89 -20 -213 74 -262 43
-22 126 -21 166 3 121 71 133 227 24 310 -47 36 -118 46 -172 25z"/>
<path d="M2129 4017 c-160 -60 -233 -226 -165 -372 79 -170 291 -216 430 -94
62 55 89 117 89 204 0 111 -47 190 -147 245 -50 27 -156 36 -207 17z"/>
<path d="M3347 3554 c-33 -33 -41 -57 -33 -99 16 -82 121 -109 179 -45 31 35
35 75 12 120 -19 37 -43 50 -93 50 -29 0 -46 -7 -65 -26z"/>
<path d="M3457 3144 c-1 -1 -56 -4 -122 -7 -128 -7 -216 -21 -415 -68 -168
-40 -162 -38 -227 -46 -76 -9 -173 -9 -253 0 -62 7 -86 11 -155 22 -32 5 -134
14 -229 19 -65 4 -170 -14 -189 -33 -9 -9 -12 -221 -13 -899 -1 -849 0 -889
18 -928 25 -56 99 -106 194 -131 16 -4 358 -8 759 -10 579 -1 746 1 806 12 84
15 138 34 155 56 8 10 12 283 12 984 0 534 -2 977 -4 986 -9 32 -62 43 -202
44 -73 0 -134 -1 -135 -1z"/>
</g>
</svg>
